<?xml version="1.0" standalone="no"?>
<!DOCTYPE svg PUBLIC "-//W3C//DTD SVG 20010904//EN"
 "http://www.w3.org/TR/2001/REC-SVG-20010904/DTD/svg10.dtd">
<svg version="1.0" xmlns="http://www.w3.org/2000/svg"
 width="700.000000pt" height="700.000000pt" viewBox="0 0 700.000000 700.000000"
 preserveAspectRatio="xMidYMid meet">
<metadata>
Created by potrace 1.14, written by Peter Selinger 2001-2017
</metadata>
<g transform="translate(0.000000,700.000000) scale(0.100000,-0.100000)"
fill="#000000" stroke="none">
<path d="M1525 6984 c-379 -51 -707 -207 -982 -468 -303 -286 -491 -671 -533
-1091 -8 -78 -10 -665 -8 -1995 l3 -1885 23 -113 c137 -684 631 -1211 1292
-1377 222 -56 174 -55 2178 -55 1170 0 1880 4 1937 10 134 15 236 38 369 81
648 212 1113 793 1186 1481 14 130 13 3743 0 3863 -95 828 -730 1464 -1552
1554 -156 17 -3783 13 -3913 -5z m140 -1469 c94 -54 171 -98 172 -99 1 -1 -42
-79 -96 -173 l-98 -170 26 -16 c14 -8 236 -132 493 -275 l467 -260 83 80 c156
150 281 228 468 291 209 71 453 47 685 -68 108 -53 175 -110 374 -316 83 -86
174 -173 203 -193 l53 -36 410 -10 c445 -10 478 -14 713 -86 248 -75 485 -254
632 -476 144 -217 176 -330 174 -623 -1 -234 -17 -338 -84 -539 -154 -460
-486 -952 -811 -1201 -135 -104 -207 -146 -322 -189 -190 -71 -339 -94 -494
-76 -211 24 -342 71 -543 195 -116 72 -291 242 -402 392 -42 56 -142 213 -223
348 -81 136 -160 262 -176 280 -44 50 -95 69 -299 115 -285 63 -370 95 -528
202 -208 139 -335 333 -377 575 -31 178 -17 322 61 600 5 19 -42 50 -478 311
-265 159 -497 296 -513 305 l-30 15 -89 -154 c-48 -85 -93 -154 -98 -154 -7 0
-273 148 -316 175 -4 3 295 513 331 566 l32 46 235 -131 c225 -126 1352 -797
1377 -820 9 -8 0 -30 -36 -92 -140 -236 -179 -556 -91 -743 54 -113 201 -240
338 -291 59 -22 245 -70 273 -70 9 0 44 37 79 83 88 113 234 255 386 373 218
168 324 280 454 479 51 79 170 309 170 330 0 5 -17 21 -37 35 -21 14 -130 118
-243 232 -181 182 -213 211 -271 237 -95 43 -183 63 -274 64 -70 0 -92 -5
-175 -38 -52 -21 -117 -52 -145 -70 -74 -47 -192 -162 -296 -286 -66 -80 -96
-108 -108 -104 -49 19 -1252 695 -1398 785 -96 60 -179 110 -185 112 -12 4
143 293 167 313 7 5 50 75 95 155 89 157 99 172 109 166 3 -2 83 -47 176 -101z"/>
</g>
</svg>
