<?xml version="1.0" standalone="no"?>
<!DOCTYPE svg PUBLIC "-//W3C//DTD SVG 20010904//EN"
 "http://www.w3.org/TR/2001/REC-SVG-20010904/DTD/svg10.dtd">
<svg version="1.0" xmlns="http://www.w3.org/2000/svg"
 width="700.000000pt" height="700.000000pt" viewBox="0 0 700.000000 700.000000"
 preserveAspectRatio="xMidYMid meet">
<metadata>
Created by potrace 1.14, written by Peter Selinger 2001-2017
</metadata>
<g transform="translate(0.000000,700.000000) scale(0.100000,-0.100000)"
fill="#000000" stroke="none">
<path d="M1525 6984 c-204 -27 -380 -81 -559 -170 -535 -268 -889 -778 -956
-1379 -13 -123 -13 -3747 0 -3870 15 -134 38 -236 81 -369 184 -562 651 -996
1229 -1141 222 -56 174 -55 2176 -55 1240 0 1877 3 1942 11 456 50 863 268
1156 619 224 269 360 593 396 950 8 72 10 693 8 1990 l-3 1885 -23 113 c-154
773 -762 1337 -1534 1421 -156 17 -3783 13 -3913 -5z m140 -1469 c94 -54 171
-98 172 -99 1 -1 -42 -79 -96 -173 l-98 -170 26 -16 c14 -8 236 -132 493 -275
l467 -260 83 80 c156 150 281 228 468 291 209 71 453 47 685 -68 108 -53 175
-110 374 -316 83 -86 174 -172 203 -192 l53 -37 410 -10 c445 -10 480 -14 713
-86 248 -75 485 -254 632 -476 144 -217 176 -330 174 -623 -1 -234 -17 -338
-84 -539 -154 -460 -486 -952 -811 -1201 -135 -104 -207 -146 -322 -189 -190
-71 -339 -94 -494 -76 -211 24 -342 71 -543 195 -116 72 -291 242 -402 392
-42 56 -142 213 -223 348 -81 136 -160 262 -176 280 -44 50 -94 69 -295 114
-295 66 -373 96 -532 203 -208 139 -335 333 -377 575 -31 178 -17 322 61 600
5 19 -42 50 -478 311 -265 159 -497 296 -513 305 l-30 15 -89 -154 c-48 -85
-93 -154 -98 -154 -7 0 -273 148 -316 175 -4 3 295 513 331 566 l32 46 235
-131 c226 -127 1353 -797 1377 -820 9 -8 0 -31 -37 -92 -77 -130 -140 -353
-140 -496 1 -153 43 -270 134 -366 61 -65 175 -143 254 -172 59 -22 245 -70
273 -70 9 0 44 37 79 83 88 113 234 255 386 373 218 168 324 280 454 479 51
79 170 309 170 330 0 5 -17 21 -37 35 -21 14 -130 118 -243 232 -223 225 -250
244 -401 283 -135 36 -244 21 -394 -52 -116 -57 -220 -149 -367 -326 -66 -78
-95 -106 -107 -102 -49 19 -1252 695 -1398 785 -96 60 -179 110 -185 112 -12
4 143 293 167 313 7 5 50 75 95 155 89 157 99 172 109 166 3 -2 83 -47 176
-101z"/>
</g>
</svg>
